<?xml version="1.0" standalone="no"?>
<!DOCTYPE svg PUBLIC "-//W3C//DTD SVG 20010904//EN"
 "http://www.w3.org/TR/2001/REC-SVG-20010904/DTD/svg10.dtd">
<svg version="1.0" xmlns="http://www.w3.org/2000/svg"
 width="512.000000pt" height="512.000000pt" viewBox="0 0 512.000000 512.000000"
 preserveAspectRatio="xMidYMid meet">
<metadata>
Created by potrace 1.14, written by Peter Selinger 2001-2017
</metadata>
<g transform="translate(0.000000,512.000000) scale(0.100000,-0.100000)"
fill="#000000" stroke="none">
<path d="M3314 5104 c-69 -16 -114 -37 -170 -80 -56 -43 -62 -50 -109 -120
-68 -103 -68 -106 -69 -724 -1 -305 2 -580 7 -610 10 -74 65 -185 116 -238 56
-57 103 -87 181 -115 l65 -23 1 -166 c2 -185 10 -214 70 -243 79 -37 108 -21
249 140 33 37 72 82 88 99 15 17 53 61 85 98 l57 68 310 0 c508 1 561 4 629
30 150 58 253 175 285 328 7 34 11 193 11 436 l0 383 -23 21 c-31 29 -77 29
-105 -1 -21 -22 -21 -30 -24 -427 -3 -402 -3 -405 -26 -449 -32 -60 -92 -118
-149 -144 -47 -21 -58 -22 -508 -24 l-460 -2 -50 -53 c-27 -30 -90 -100 -140
-158 -49 -57 -102 -117 -117 -134 l-28 -30 -1 39 c0 22 -1 95 -1 163 1 149 -9
167 -97 177 -135 14 -238 103 -266 229 -7 35 -11 222 -10 596 1 491 3 550 19
597 23 70 91 144 158 174 l53 23 680 2 c709 1 740 -1 803 -42 82 -54 142 -159
142 -248 0 -53 22 -84 67 -92 26 -5 37 -1 59 21 25 25 26 30 21 99 -4 40 -11
86 -17 102 -53 145 -167 253 -310 295 -62 18 -1402 21 -1476 3z"/>
<path d="M2487 4784 c-1 -1 -47 -4 -102 -8 -240 -15 -471 -63 -705 -148 -120
-43 -337 -148 -455 -220 -83 -51 -236 -157 -255 -178 -3 -3 -32 -27 -65 -54
-77 -64 -226 -213 -296 -296 -30 -36 -56 -67 -59 -70 -22 -22 -120 -164 -174
-254 -88 -146 -206 -395 -206 -436 0 -33 39 -70 74 -70 44 0 57 17 110 138
275 630 793 1103 1443 1321 262 87 490 122 798 122 120 0 184 4 193 12 27 22
33 57 16 92 -13 29 -23 35 -57 40 -40 5 -255 13 -260 9z"/>
<path d="M4222 4688 c-155 -42 -294 -83 -309 -90 -14 -7 -36 -26 -47 -41 -20
-27 -21 -42 -23 -275 -1 -136 -2 -260 -3 -277 l0 -30 -68 -1 c-266 -3 -392
-355 -158 -443 126 -47 280 17 349 144 20 36 22 59 27 240 l5 200 245 67 c135
37 248 68 251 68 4 0 5 -165 0 -180 0 -3 -31 -5 -69 -6 -52 0 -78 -6 -118 -26
-146 -76 -202 -245 -118 -355 105 -138 356 -82 438 97 20 43 20 63 22 460 1
388 0 417 -17 452 -11 21 -29 43 -41 49 -55 30 -78 27 -366 -53z m274 -183 l1
-94 -46 -15 c-25 -8 -131 -38 -236 -66 -104 -28 -198 -54 -207 -56 -16 -5 -18
4 -18 95 0 86 2 100 18 105 51 15 210 59 227 62 11 2 72 19 135 37 63 19 117
32 120 29 3 -2 5 -46 6 -97z m-19 -600 c29 -20 21 -60 -19 -102 -35 -37 -71
-52 -111 -47 -40 4 -55 20 -49 52 15 82 119 139 179 97z m-653 -91 c23 -22 20
-52 -10 -91 -57 -75 -174 -80 -174 -7 0 12 12 37 27 55 46 54 125 76 157 43z"/>
<path d="M2497 4434 c-1 -1 -47 -4 -102 -8 -516 -32 -1021 -264 -1399 -642
-373 -373 -590 -844 -641 -1389 -2 -22 -4 -95 -4 -162 l-1 -123 -101 0 -102 0
6 173 c4 94 9 188 12 207 24 147 46 270 53 295 23 81 -69 145 -122 86 -41 -46
-91 -386 -94 -646 -2 -136 0 -165 15 -195 21 -41 72 -70 123 -70 l35 0 0 -155
0 -155 -33 -16 c-18 -8 -50 -33 -70 -55 -68 -72 -69 -77 -67 -566 1 -481 0
-473 64 -545 98 -112 300 -98 380 25 l24 37 79 0 78 0 0 -98 c0 -59 6 -119 15
-149 22 -75 86 -165 148 -207 92 -63 119 -68 337 -70 173 0 199 2 230 18 46
25 85 71 99 116 8 26 11 297 11 889 0 746 -2 856 -15 889 -20 48 -50 79 -100
104 -35 18 -58 21 -215 21 -180 0 -231 -8 -304 -45 -65 -33 -134 -106 -168
-177 -30 -60 -33 -76 -36 -183 -3 -79 -8 -118 -16 -119 -132 -6 -136 -6 -164
31 -35 46 -60 68 -97 85 l-30 13 0 154 0 153 45 5 c25 3 57 14 72 23 48 32 55
66 61 272 3 105 8 208 12 230 50 358 182 685 388 962 234 314 552 557 920 702
80 32 307 94 387 106 25 3 56 8 70 10 86 14 269 21 405 16 33 -2 68 -2 77 -2
19 1 46 37 53 69 5 30 -30 70 -68 77 -29 5 -245 13 -250 9z m-1191 -2554 c12
-11 14 -132 14 -855 0 -768 -1 -844 -16 -856 -12 -9 -48 -14 -115 -15 l-99 -1
0 868 0 868 23 3 c50 7 179 -1 193 -12z m-370 -1707 c-2 -3 -18 2 -34 11 -42
22 -97 88 -111 135 -16 56 -15 1379 1 1419 20 45 75 108 110 125 l33 16 3
-851 c1 -468 0 -853 -2 -855z m-617 1302 l26 -25 0 -423 c0 -390 -2 -424 -18
-449 -34 -50 -125 -49 -156 3 -17 27 -18 63 -17 450 l1 421 34 30 c28 25 39
29 69 24 20 -3 47 -17 61 -31z m311 -452 l0 -344 -67 3 -68 3 -1 335 c0 184 1
338 4 343 2 4 32 7 68 6 l64 -2 0 -344z"/>
<path d="M4878 3075 c-34 -19 -43 -59 -23 -115 13 -38 38 -127 51 -182 2 -10
6 -28 9 -40 7 -27 32 -177 39 -233 3 -22 9 -120 12 -217 l7 -178 -102 0 -101
0 -1 108 c0 111 -2 136 -14 262 -15 162 -95 476 -134 529 -24 34 -63 43 -93
23 -48 -33 -49 -50 -8 -174 17 -51 33 -105 36 -122 3 -16 7 -32 9 -36 3 -5 26
-127 41 -225 3 -16 8 -115 10 -220 6 -214 15 -245 74 -277 19 -10 51 -18 70
-18 l35 0 0 -155 0 -155 -31 -17 c-47 -27 -67 -45 -96 -83 -28 -37 -29 -37
-165 -31 -10 1 -13 28 -13 99 0 105 -15 170 -54 237 -51 86 -164 165 -261 181
-22 4 -114 7 -205 7 -179 -1 -215 -9 -267 -65 -54 -57 -53 -49 -53 -713 l0
-616 26 -26 c20 -20 31 -24 57 -19 18 3 40 16 50 27 16 20 17 65 17 629 0 536
2 609 15 620 11 9 49 13 113 13 l97 0 0 -869 0 -869 -90 -1 c-131 -2 -135 1
-135 125 0 84 -3 102 -21 125 -27 34 -71 35 -104 1 -24 -23 -25 -31 -25 -133
0 -118 10 -158 53 -204 52 -56 77 -62 268 -63 192 -2 253 8 325 50 63 37 121
101 156 173 29 59 32 75 36 183 l4 119 79 0 c44 0 79 -4 79 -8 0 -4 17 -26 38
-49 121 -135 336 -99 411 67 23 52 26 881 3 952 -16 52 -74 118 -121 139 -16
7 -31 20 -33 29 -2 8 -4 78 -3 155 l0 140 46 5 c59 7 97 32 116 78 13 31 15
70 10 237 -3 110 -8 209 -11 221 -2 11 -7 45 -10 75 -3 30 -8 65 -11 79 -49
250 -89 388 -121 418 -29 25 -48 27 -86 7z m-610 -1249 c13 -11 34 -39 45 -61
22 -40 22 -46 25 -720 2 -486 0 -691 -8 -719 -21 -70 -72 -129 -132 -152 -17
-6 -18 39 -18 850 l0 857 33 -17 c17 -9 43 -26 55 -38z m672 -351 l25 -25 1
-418 c1 -252 -3 -425 -9 -437 -37 -77 -152 -71 -175 8 -6 18 -9 210 -8 438 1
392 2 408 21 429 42 47 101 48 145 5z m-319 -119 c1 -6 2 -161 3 -344 l1 -332
-67 0 -68 0 0 345 0 345 65 -1 c40 -1 65 -6 66 -13z"/>
</g>
</svg>
